<svg viewBox="0 0 1000 1000" xmlns="http://www.w3.org/2000/svg"><path d="m0 0h999.96v1000h-999.96z" fill="#c5192d"/><g fill="#fff"><path d="m301.21 165.45v5.55l25.92 4.83v-10.26l-10.13-1.94c7-3.37 10.13-10.36 10.13-19.29v-39.56c0-12.77-6.27-22.06-20.84-22.06s-20.74 9.28-20.74 22.06v39.56c0 11.09 4.7 19.18 15.66 21.11m-1.91-62.83c0-4.94 2.16-8.43 7-8.43s7.1 3.49 7.1 8.43v44.62c0 4.82-2.16 8.45-7.1 8.45s-7-3.63-7-8.45z"/><path d="m356.68 166.42c14 0 19.42-8.21 19.42-20.87v-61.87h-12.67v63.2c0 4.82-1.93 8.08-6.75 8.08s-6.75-3.26-6.75-8.08v-63.2h-13.75v61.87c0 12.66 6 20.87 20.5 20.87"/><path d="m396.46 150.49h14.54l2.54 15h14.11l-15.52-81.81h-15.67l-15.46 81.77h13zm7.22-43.77h.14l5.42 32.8h-11z"/><path d="m464.69 154.23h-16.38v-70.55h-13.75v81.77h30.13z"/><path d="m471.07 83.68h13.74v81.76h-13.74z"/><path d="m502.61 165.45h13.85v-70.55h11.34v-11.22h-36.51v11.22h11.32z"/><path d="m547.31 165.45h13.75v-31.12l15.18-50.65h-13.14l-8.32 31h-.12l-8.31-31h-14.35l15.31 50.65z"/><path d="m318.31 274.13h-19.04v-24.86h13.61v-11.08h-13.61v-23.4h19.04v-11.22h-32.78v81.76h32.78z"/><path d="m367.85 263.38v-37.86c0-12.66-5.17-22-19.88-22h-21.23v81.77h21.26c14.71 0 19.88-9.41 19.88-22m-27.36 10.74v-59.25h5.79c5.66 0 7.82 3.38 7.82 8.2v42.82c0 4.94-2.16 8.32-7.82 8.32z"/><path d="m376.9 203.57v61.87c0 12.67 6 20.86 20.49 20.86 14 0 19.41-8.19 19.41-20.86v-61.87h-12.65v63.19c0 4.83-1.94 8.08-6.76 8.08s-6.75-3.25-6.75-8.08v-63.19z"/><path d="m425.84 264.23c0 12.66 6 22.07 20.5 22.07s19.4-8.68 19.4-20.39v-14.1h-12.53v15.07c0 4.83-1.69 8-6.63 8s-7-3.49-7-8.45v-43.92c0-4.95 2-8.45 7-8.45s6.63 2.89 6.63 8v10.73h12.53v-9.69c0-12-4.22-20.5-19.4-20.5-14.47 0-20.5 9.29-20.5 22.07z"/><path d="m485.38 270.37h14.62l2.53 15h14.07l-15.55-81.76h-15.67l-15.44 81.76h13zm7.22-43.77h.12l5.43 32.8h-11z"/><path d="m514.89 214.79h11.32v70.54h13.87v-70.54h11.32v-11.22h-36.51z"/><path d="m559 203.57h13.75v81.77h-13.75z"/><path d="m602.65 286.3c14.57 0 20.83-9.4 20.83-22.08v-39.55c0-12.78-6.26-22.06-20.83-22.06s-20.73 9.28-20.73 22.06v39.55c0 12.68 6.26 22.08 20.73 22.08m-7-63.8c0-4.94 2.17-8.43 7-8.43s7.11 3.49 7.11 8.43v43.89c0 5-2.17 8.45-7.11 8.45s-7-3.49-7-8.45z"/><path d="m644.12 233.95 16.16 51.4h12.06v-81.79h-11.46v46.92l-14.83-46.92h-13.49v81.79h11.56z"/><path d="m156.65 285.43h32.11v-32.71h13.69v-26.46h-13.69v-142.46h-33.31l-58.58 148.1v20.82h59.78zm-30-59.17 30.33-83h.3v83z"/><path d="m438.3 536.19-179.34-103.56v335l179.34 54.11z"/><path d="m458.03 536.87v284.99l180.5-54.27v-334.95z"/><path d="m779.32 424.15a21.22 21.22 0 1 0 -42.43 0v22.85h42.43z"/><path d="m742.16 761.69h-5.27l21.23 74.16 21.19-74.16h-5.27 5.27v-298.05h-5.27-5.27-5.58-10.56-5.21-5.26-5.28v298.05z"/><path d="m677.06 447.02-19.23-15.19v344.89l-199.27 64.39h-9.22-1.83-9.21l-198.38-55.43v-353.85l-19.24 15.19v352.15l216.71 60h10.12 1.83 10.12l199.94-63.48 17.66-5.2z"/></g></svg>